<svg width="21" height="18" viewBox="0 0 21 18" fill="none" xmlns="http://www.w3.org/2000/svg">
<path d="M13.5926 16.1429V14.5556C13.5926 13.7136 13.2642 12.9062 12.6797 12.3108C12.0952 11.7155 11.3024 11.381 10.4757 11.381H5.02118C4.19453 11.381 3.40174 11.7155 2.81721 12.3108C2.23268 12.9062 1.9043 13.7136 1.9043 14.5556V16.1429M14.3718 8.20638L15.9303 9.79369L19.0472 6.61908M10.8653 5.03178C10.8653 6.78507 9.46986 8.20638 7.74845 8.20638C6.02705 8.20638 4.63157 6.78507 4.63157 5.03178C4.63157 3.2785 6.02705 1.85718 7.74845 1.85718C9.46986 1.85718 10.8653 3.2785 10.8653 5.03178Z" stroke="white" stroke-width="2" stroke-linecap="round" stroke-linejoin="round"/>
</svg>
