<svg width="18" height="18" viewBox="0 0 18 18" fill="none" xmlns="http://www.w3.org/2000/svg">
<path d="M12.5802 6.85718H13.2831C14.0289 6.85718 14.744 7.1582 15.2714 7.69402C15.7987 8.22983 16.0949 8.95656 16.0949 9.71432C16.0949 10.4721 15.7987 11.1988 15.2714 11.7346C14.744 12.2704 14.0289 12.5715 13.2831 12.5715H12.5802M12.5802 6.85718H1.33301V13.2857C1.33301 14.0435 1.62925 14.7702 2.15656 15.3061C2.68388 15.8419 3.39907 16.1429 4.1448 16.1429H9.76838C10.5141 16.1429 11.2293 15.8419 11.7566 15.3061C12.2839 14.7702 12.5802 14.0435 12.5802 13.2857V6.85718ZM4.1448 1.85718V4.00003M6.95659 1.85718V4.00003M9.76838 1.85718V4.00003" stroke="white" stroke-width="2" stroke-linecap="round" stroke-linejoin="round"/>
</svg>
