<svg width="100%" height="850" viewBox="0 0 1349 850" preserveAspectRatio="none" fill="none" xmlns="http://www.w3.org/2000/svg">
<path fill-rule="evenodd" clip-rule="evenodd" d="M-321 773.875L-243.458 752.729C-165.917 731.583 -10.8333 689.292 144.25 672.375C299.333 655.458 454.417 663.917 609.5 685.063C764.583 706.208 919.667 740.042 1074.75 769.646C1229.83 799.25 1384.92 824.625 1462.46 837.313L1540 850V647H1462.46C1384.92 647 1229.83 647 1074.75 647C919.667 647 764.583 647 609.5 647C454.417 647 299.333 647 144.25 647C-10.8333 647 -165.917 647 -243.458 647H-321V773.875Z" fill="#FFF7E1"/>
<rect y="203" width="100%" height="450" fill="#FFF7E1"/>
<path fill-rule="evenodd" clip-rule="evenodd" d="M-321 76.125L-243.458 97.2708C-165.917 118.417 -10.8333 160.708 144.25 177.625C299.333 194.542 454.417 186.083 609.5 164.938C764.583 143.792 919.667 109.958 1074.75 80.3542C1229.83 50.75 1384.92 25.375 1462.46 12.6875L1540 0V203H1462.46C1384.92 203 1229.83 203 1074.75 203C919.667 203 764.583 203 609.5 203C454.417 203 299.333 203 144.25 203C-10.8333 203 -165.917 203 -243.458 203H-321V76.125Z" fill="#FFF7E1"/>
</svg>
