<svg width="100%" height="867" viewBox="0 0 768 867" preserveAspectRatio="none" fill="none" xmlns="http://www.w3.org/2000/svg">
<path fill-rule="evenodd" clip-rule="evenodd" d="M0 819.75L32 806.625C64 793.5 128 767.25 192 756.75C256 746.25 320 751.5 384 764.625C448 777.75 512 798.75 576 817.125C640 835.5 704 851.25 736 859.125L768 867V741H736C704 741 640 741 576 741C512 741 448 741 384 741C320 741 256 741 192 741C128 741 64 741 32 741H0V819.75Z" fill="#FFF7E1"/>
<rect y="126" width="100%" height="615" fill="#FFF7E1"/>
<path fill-rule="evenodd" clip-rule="evenodd" d="M0 47.25L32 60.375C64 73.5 128 99.75 192 110.25C256 120.75 320 115.5 384 102.375C448 89.25 512 68.25 576 49.875C640 31.5 704 15.75 736 7.875L768 0V126H736C704 126 640 126 576 126C512 126 448 126 384 126C320 126 256 126 192 126C128 126 64 126 32 126H0V47.25Z" fill="#FFF7E1"/>
</svg>
