<svg width="375" height="61" viewBox="0 0 375 61" fill="none" xmlns="http://www.w3.org/2000/svg">
<path fill-rule="evenodd" clip-rule="evenodd" d="M-97 38.125L-77.3333 31.7708C-57.6667 25.4167 -18.3333 12.7083 21 7.625C60.3333 2.54167 99.6667 5.08334 139 11.4375C178.333 17.7917 217.667 27.9583 257 36.8542C296.333 45.75 335.667 53.375 355.333 57.1875L375 61V0H355.333C335.667 0 296.333 0 257 0C217.667 0 178.333 0 139 0C99.6667 0 60.3333 0 21 0C-18.3333 0 -57.6667 0 -77.3333 0H-97V38.125Z" fill="#F9B300"/>
</svg>
