<svg width="375" height="61" viewBox="0 0 375 61" fill="none" xmlns="http://www.w3.org/2000/svg">
<g clip-path="url(#clip0_3859:107)">
<rect width="375" height="61" fill="white"/>
<path fill-rule="evenodd" clip-rule="evenodd" d="M-97 38.125L-77.3333 31.7708C-57.6667 25.4167 -18.3333 12.7083 21 7.625C60.3333 2.54167 99.6667 5.08333 139 11.4375C178.333 17.7917 217.667 27.9583 257 36.8542C296.333 45.75 335.667 53.375 355.333 57.1875L375 61V9.53674e-07H355.333C335.667 9.53674e-07 296.333 9.53674e-07 257 9.53674e-07C217.667 9.53674e-07 178.333 9.53674e-07 139 9.53674e-07C99.6667 9.53674e-07 60.3333 9.53674e-07 21 9.53674e-07C-18.3333 9.53674e-07 -57.6667 9.53674e-07 -77.3333 9.53674e-07H-97V38.125Z" fill="#F9B300"/>
</g>
<defs>
<clipPath id="clip0_3859:107">
<rect width="375" height="61" fill="white"/>
</clipPath>
</defs>
</svg>
