<svg width="142" height="25" viewBox="0 0 142 25" fill="none" xmlns="http://www.w3.org/2000/svg">
<path d="M12.5331 0L15.3325 8.49899L24.4528 8.47947L17.0626 13.7126L19.8999 22.1995L12.5331 16.9348L5.16634 22.1995L8.00364 13.7126L0.613415 8.47947L9.73375 8.49899L12.5331 0Z" fill="#F9B300"/>
<path d="M41.7665 0L44.5659 8.49899L53.6862 8.47947L46.296 13.7126L49.1333 22.1995L41.7665 16.9348L34.3997 22.1995L37.237 13.7126L29.8468 8.47947L38.9671 8.49899L41.7665 0Z" fill="#F9B300"/>
<path d="M70.9999 0L73.7993 8.49899L82.9196 8.47947L75.5294 13.7126L78.3667 22.1995L70.9999 16.9348L63.6331 22.1995L66.4704 13.7126L59.0802 8.47947L68.2005 8.49899L70.9999 0Z" fill="#F9B300"/>
<path d="M100.233 0L103.033 8.49899L112.153 8.47947L104.763 13.7126L107.6 22.1995L100.233 16.9348L92.8665 22.1995L95.7038 13.7126L88.3136 8.47947L97.4339 8.49899L100.233 0Z" fill="#F9B300"/>
<path d="M129.467 0L132.266 8.49899L141.386 8.47947L133.996 13.7126L136.834 22.1995L129.467 16.9348L122.1 22.1995L124.937 13.7126L117.547 8.47947L126.667 8.49899L129.467 0Z" fill="#F0F0F0"/>
</svg>
