<svg width="80" height="12" viewBox="0 0 80 12" fill="none" xmlns="http://www.w3.org/2000/svg">
<path d="M0.523614 10.1433C-0.628923 8.11131 0.15535 4.92432 2.53964 2.53985C5.24725 -0.166839 8.99111 -0.812127 10.9026 1.0986C10.9048 1.1011 10.9067 1.10394 10.9098 1.10648C10.5272 2.21925 9.30898 4.58694 5.65726 5.86702C2.31211 7.04027 1.02171 8.90558 0.523614 10.1433ZM11.4402 1.7942C11.1505 2.46996 10.6462 3.35308 9.77734 4.22169C8.90398 5.09524 7.66269 5.95318 5.90445 6.5698C2.33596 7.82088 1.33892 9.869 1.06073 10.8615C1.07388 10.8747 1.08518 10.8885 1.09795 10.9014C3.00925 12.8122 6.75326 12.1669 9.46068 9.45977C11.8698 7.05112 12.6446 3.82281 11.4402 1.7942Z" fill="#505050"/>
<path d="M17.5236 10.1433C16.3711 8.11131 17.1554 4.92432 19.5396 2.53985C22.2473 -0.166839 25.9911 -0.812127 27.9026 1.0986C27.9048 1.1011 27.9067 1.10394 27.9098 1.10648C27.5272 2.21925 26.309 4.58694 22.6573 5.86702C19.3121 7.04027 18.0217 8.90558 17.5236 10.1433ZM28.4402 1.7942C28.1505 2.46996 27.6462 3.35308 26.7773 4.22169C25.904 5.09524 24.6627 5.95318 22.9045 6.5698C19.336 7.82088 18.3389 9.869 18.0607 10.8615C18.0739 10.8747 18.0852 10.8885 18.098 10.9014C20.0093 12.8122 23.7533 12.1669 26.4607 9.45977C28.8698 7.05112 29.6446 3.82281 28.4402 1.7942Z" fill="#505050"/>
<path d="M34.5236 10.1433C33.3711 8.11131 34.1554 4.92432 36.5396 2.53985C39.2473 -0.166839 42.9911 -0.812127 44.9026 1.0986C44.9048 1.1011 44.9067 1.10394 44.9098 1.10648C44.5272 2.21925 43.309 4.58694 39.6573 5.86702C36.3121 7.04027 35.0217 8.90558 34.5236 10.1433ZM45.4402 1.7942C45.1505 2.46996 44.6462 3.35308 43.7773 4.22169C42.904 5.09524 41.6627 5.95318 39.9045 6.5698C36.336 7.82088 35.3389 9.869 35.0607 10.8615C35.0739 10.8747 35.0852 10.8885 35.098 10.9014C37.0093 12.8122 40.7533 12.1669 43.4607 9.45977C45.8698 7.05112 46.6446 3.82281 45.4402 1.7942Z" fill="#505050"/>
<path d="M51.5236 10.1433C50.3711 8.11131 51.1554 4.92432 53.5396 2.53985C56.2473 -0.166839 59.9911 -0.812127 61.9026 1.0986C61.9048 1.1011 61.9067 1.10394 61.9098 1.10648C61.5272 2.21925 60.309 4.58694 56.6573 5.86702C53.3121 7.04027 52.0217 8.90558 51.5236 10.1433ZM62.4402 1.7942C62.1505 2.46996 61.6462 3.35308 60.7773 4.22169C59.904 5.09524 58.6627 5.95318 56.9045 6.5698C53.336 7.82088 52.3389 9.869 52.0607 10.8615C52.0739 10.8747 52.0852 10.8885 52.098 10.9014C54.0093 12.8122 57.7533 12.1669 60.4607 9.45977C62.8698 7.05112 63.6446 3.82281 62.4402 1.7942Z" fill="#505050"/>
<path d="M68.5236 10.1433C67.3711 8.11131 68.1554 4.92432 70.5396 2.53985C73.2473 -0.166839 76.9911 -0.812127 78.9026 1.0986C78.9048 1.1011 78.9067 1.10394 78.9098 1.10648C78.5272 2.21925 77.309 4.58694 73.6573 5.86702C70.3121 7.04027 69.0217 8.90558 68.5236 10.1433ZM79.4402 1.7942C79.1505 2.46996 78.6462 3.35308 77.7773 4.22169C76.904 5.09524 75.6627 5.95318 73.9045 6.5698C70.336 7.82088 69.3389 9.869 69.0607 10.8615C69.0739 10.8747 69.0852 10.8885 69.098 10.9014C71.0093 12.8122 74.7533 12.1669 77.4607 9.45977C79.8698 7.05112 80.6446 3.82281 79.4402 1.7942Z" fill="#505050"/>
</svg>
