<svg width="83" height="16" viewBox="0 0 83 16" fill="none" xmlns="http://www.w3.org/2000/svg">
<path d="M8 0L9.79611 5.52786H15.6085L10.9062 8.94427L12.7023 14.4721L8 11.0557L3.29772 14.4721L5.09383 8.94427L0.391548 5.52786H6.20389L8 0Z" fill="#F9B300"/>
<path d="M25 0L26.7961 5.52786H32.6085L27.9062 8.94427L29.7023 14.4721L25 11.0557L20.2977 14.4721L22.0938 8.94427L17.3915 5.52786H23.2039L25 0Z" fill="#F9B300"/>
<path d="M41 0L42.7961 5.52786H48.6085L43.9062 8.94427L45.7023 14.4721L41 11.0557L36.2977 14.4721L38.0938 8.94427L33.3915 5.52786H39.2039L41 0Z" fill="#F9B300"/>
<path d="M58 0L59.7961 5.52786H65.6085L60.9062 8.94427L62.7023 14.4721L58 11.0557L53.2977 14.4721L55.0938 8.94427L50.3915 5.52786H56.2039L58 0Z" fill="#F9B300"/>
<path d="M75 0L76.7961 5.52786H82.6085L77.9062 8.94427L79.7023 14.4721L75 11.0557L70.2977 14.4721L72.0938 8.94427L67.3915 5.52786H73.2039L75 0Z" fill="#F0F0F0"/>
</svg>
