<svg width="100%" height="82" viewBox="0 0 768 82" fill="none" xmlns="http://www.w3.org/2000/svg">
<path fill-rule="evenodd" clip-rule="evenodd" d="M776 30.75L743.375 39.2917C710.75 47.8333 645.5 64.9167 580.25 71.75C515 78.5833 449.75 75.1667 384.5 66.625C319.25 58.0833 254 44.4167 188.75 32.4583C123.5 20.5 58.2499 10.25 25.6249 5.125L-7 0V82H25.6249C58.2499 82 123.5 82 188.75 82C254 82 319.25 82 384.5 82C449.75 82 515 82 580.25 82C645.5 82 710.75 82 743.375 82H776V30.75Z" fill="white"/>
</svg>
