<svg width="514" height="1244" viewBox="0 0 514 1244" fill="none" xmlns="http://www.w3.org/2000/svg">
<g clip-path="url(#clip0_3816:6)">
<path fill-rule="evenodd" clip-rule="evenodd" d="M613.696 112.369C700.217 135.667 799.422 96.8368 871.617 158.144C954.122 228.207 1033.87 333.886 1034.01 469.294C1034.14 603.682 929.541 704.801 872.272 824.895C816.597 941.646 792.312 1088.78 703.559 1162.25C611.298 1238.62 497.079 1247.93 399.048 1216.64C305.8 1186.87 248.54 1083.51 183.107 996.123C114.864 904.981 3.40875 833.167 10.4857 697.691C17.6401 560.733 156.506 493.18 215.694 372.301C271.627 258.072 252.262 76.1795 344.218 16.1233C436.222 -43.964 519.655 87.0448 613.696 112.369Z" fill="#F9B300"/>
</g>
<defs>
<clipPath id="clip0_3816:6">
<rect width="514" height="1244" fill="white"/>
</clipPath>
</defs>
</svg>
