<svg width="362" height="937" viewBox="0 0 362 937" fill="none" xmlns="http://www.w3.org/2000/svg">
<path fill-rule="evenodd" clip-rule="evenodd" d="M439.546 78.5323C506.137 93.3441 580.291 60.4127 637.26 104.654C702.365 155.214 766.571 232.991 771.216 336.103C775.825 438.438 699.66 518.987 660.13 612.382C621.7 703.177 608.165 816.046 543.124 875.002C475.51 936.29 388.946 947.243 313.333 926.735C241.408 907.228 194.387 830.455 141.687 766.123C86.722 699.028 -0.462168 648.115 0.375092 544.706C1.22151 440.167 104.578 384.019 145.542 289.961C184.252 201.077 163.42 63.2172 231.348 14.3675C299.312 -34.5073 367.168 62.4332 439.546 78.5323Z" fill="#F9B300"/>
</svg>
