<svg width="146" height="576" viewBox="0 0 146 576" fill="none" xmlns="http://www.w3.org/2000/svg">
<path fill-rule="evenodd" clip-rule="evenodd" d="M270.338 48.5305C311.316 57.6429 356.945 37.3994 392.005 64.607C432.072 95.7 471.587 143.528 474.452 206.93C477.296 269.854 430.433 319.377 406.115 376.8C382.473 432.626 374.153 502.025 334.133 538.272C292.531 575.951 239.264 582.68 192.733 570.065C148.472 558.065 119.532 510.855 87.0971 471.295C53.2692 430.035 -0.384102 398.724 0.123571 335.14C0.636794 270.861 64.2341 236.344 89.4348 178.513C113.249 123.862 100.42 39.0934 142.216 9.06171C184.035 -20.9855 225.798 38.6262 270.338 48.5305Z" fill="#F9B300"/>
</svg>
