<svg width="1349" height="204" viewBox="0 0 1349 204" fill="none" xmlns="http://www.w3.org/2000/svg">
<path fill-rule="evenodd" clip-rule="evenodd" d="M0 127.5L56.2083 106.25C112.417 85 224.833 42.5 337.25 25.5C449.667 8.50001 562.083 17 674.5 38.25C786.917 59.5 899.333 93.5 1011.75 123.25C1124.17 153 1236.58 178.5 1292.79 191.25L1349 204V5.72205e-06H1292.79C1236.58 5.72205e-06 1124.17 5.72205e-06 1011.75 5.72205e-06C899.333 5.72205e-06 786.917 5.72205e-06 674.5 5.72205e-06C562.083 5.72205e-06 449.667 5.72205e-06 337.25 5.72205e-06C224.833 5.72205e-06 112.417 5.72205e-06 56.2083 5.72205e-06H0V127.5Z" fill="#FFF7E1"/>
</svg>
