<svg width="1349" height="204" viewBox="0 0 1349 204" fill="none" xmlns="http://www.w3.org/2000/svg">
<path fill-rule="evenodd" clip-rule="evenodd" d="M1565 76.5L1485.67 97.75C1406.33 119 1247.67 161.5 1089 178.5C930.333 195.5 771.667 187 613 165.75C454.333 144.5 295.667 110.5 137 80.75C-21.6667 51 -180.333 25.5 -259.667 12.75L-339 0V204H-259.667C-180.333 204 -21.6667 204 137 204C295.667 204 454.333 204 613 204C771.667 204 930.333 204 1089 204C1247.67 204 1406.33 204 1485.67 204H1565V76.5Z" fill="#F5F5F5"/>
</svg>
