<svg width="768" height="292" viewBox="0 0 768 292" fill="none" xmlns="http://www.w3.org/2000/svg">
<path fill-rule="evenodd" clip-rule="evenodd" d="M0 213.229L32 226.349C64 239.468 128 265.706 192 276.202C256 286.697 320 281.449 384 268.33C448 255.211 512 234.22 576 215.853C640 197.486 704 181.743 736 173.872L768 166V291.945H736C704 291.945 640 291.945 576 291.945C512 291.945 448 291.945 384 291.945C320 291.945 256 291.945 192 291.945C128 291.945 64 291.945 32 291.945H0V213.229Z" fill="#FFF7E1"/>
<path d="M0.5 214V0.5H767V166.5C767 166.5 389.5 283 282 283C174.5 283 112.519 266.46 0.5 214Z" fill="white"/>
</svg>
