<svg width="768" height="292" viewBox="0 0 768 292" fill="none" xmlns="http://www.w3.org/2000/svg">
<path fill-rule="evenodd" clip-rule="evenodd" d="M768 79.2155L736 66.0962C704 52.977 640 26.7385 576 16.2431C512 5.74766 448 10.9954 384 24.1146C320 37.2339 256 58.2247 192 76.5916C128 94.9586 64 110.702 32 118.573L-1.09673e-05 126.445V0.499962L32 0.499962C64 0.499962 128 0.499962 192 0.499962C256 0.499962 320 0.499962 384 0.499962C448 0.499962 512 0.499962 576 0.499962C640 0.499962 704 0.499962 736 0.499962H768V79.2155Z" fill="#FFF7E1"/>
<path d="M767.5 78.4448V291.945L1 291.945V125.945C1 125.945 378.5 9.44482 486 9.44482C593.5 9.44482 655.481 25.9848 767.5 78.4448Z" fill="white"/>
</svg>
