<svg width="1904" height="312" viewBox="0 0 1904 312" fill="none" xmlns="http://www.w3.org/2000/svg">
<path fill-rule="evenodd" clip-rule="evenodd" d="M0 132L79.3333 162C158.667 192 317.333 252 476 276C634.667 300 793.333 288 952 258C1110.67 228 1269.33 180 1428 138C1586.67 96 1745.33 60 1824.67 42L1904 24V312H1824.67C1745.33 312 1586.67 312 1428 312C1269.33 312 1110.67 312 952 312C793.333 312 634.667 312 476 312C317.333 312 158.667 312 79.3333 312H0V132Z" fill="#FFF7E1"/>
<path d="M1.5 130.5V0H1903V28C1322.31 179.486 962.469 281.292 678 287C436.961 284.168 290.745 254.696 1.5 130.5Z" fill="white"/>
</svg>
