<svg width="1904" height="312" viewBox="0 0 1904 312" fill="none" xmlns="http://www.w3.org/2000/svg">
<path fill-rule="evenodd" clip-rule="evenodd" d="M1904 180L1824.67 150C1745.33 120 1586.67 60 1428 36C1269.33 12 1110.67 24 952 54C793.333 84 634.667 132 476 174C317.333 216 158.667 252 79.3333 270L0 288V0H79.3333C158.667 0 317.333 0 476 0C634.667 0 793.333 0 952 0C1110.67 0 1269.33 0 1428 0C1586.67 0 1745.33 0 1824.67 0H1904V180Z" fill="#FFF7E1"/>
<path d="M1902.5 181.5V312L1 312V284C581.686 132.514 941.531 30.7078 1226 25C1467.04 27.8324 1613.25 57.3041 1902.5 181.5Z" fill="white"/>
</svg>
