<svg width="20" height="20" viewBox="0 0 20 20" fill="none" xmlns="http://www.w3.org/2000/svg">
<path d="M0.87269 16.9055C-1.04821 13.5188 0.258917 8.2072 4.23274 4.23309C8.74542 -0.278065 14.9852 -1.35354 18.171 1.831C18.1747 1.83517 18.1779 1.83989 18.183 1.84413C17.5454 3.69875 15.515 7.6449 9.42877 9.77837C3.85352 11.7338 1.70286 14.8426 0.87269 16.9055ZM19.0671 2.99033C18.5841 4.1166 17.7437 5.58846 16.2956 7.03615C14.84 8.49207 12.7712 9.92197 9.84076 10.9497C3.89327 13.0348 2.23153 16.4483 1.76789 18.1025C1.78979 18.1246 1.80863 18.1475 1.82992 18.1689C5.01542 21.3536 11.2554 20.2782 15.7678 15.7663C19.783 11.7519 21.0743 6.37135 19.0671 2.99033Z" fill="#505050"/>
</svg>
