<svg width="29" height="60" viewBox="0 0 29 60" fill="none" xmlns="http://www.w3.org/2000/svg">
<path d="M26 41H24V39H27C27.5523 39 28 38.5523 28 38V34C28 33.4477 27.5523 33 27 33H25V10C25 9.44775 24.5523 9 24 9H21V2H25V0H3V2H7V9H4C3.44775 9 3 9.44775 3 10V33H1C0.44775 33 0 33.4477 0 34V38C0 38.5523 0.44775 39 1 39H4V58C4 59.1046 4.89538 60 6 60H22C23.1046 60 24 59.1046 24 58V55H26C27.6569 55 29 53.6569 29 52V44C29 42.3431 27.6569 41 26 41ZM9 2H19V9H9V2ZM9 11H19V29H9V11ZM22 58H6V49H22V58ZM22 47H6V39H22V47ZM2 37V35H4C4.55225 35 5 34.5523 5 34V11H7V30C7 30.5523 7.44775 31 8 31H20C20.5523 31 21 30.5523 21 30V11H23V34C23 34.5523 23.4477 35 24 35H26V37H2ZM27 52C27 52.5523 26.5523 53 26 53H24V43H26C26.5523 43 27 43.4477 27 44V52Z" fill="#505050"/>
</svg>
