<svg width="68" height="68" viewBox="0 0 68 68" fill="none" xmlns="http://www.w3.org/2000/svg">
<path d="M66.8038 1.2868C65.2092 -0.428933 62.615 -0.428933 61.0204 1.2868L52.7478 10.1893C52.3584 10.6083 52.3579 11.288 52.7466 11.7076C53.1353 12.1272 53.7661 12.1278 54.1552 11.7089L62.428 2.80641C63.2464 1.92571 64.578 1.926 65.3962 2.80641C65.7905 3.23087 66.0077 3.79849 66.0077 4.40475C66.0077 5.01102 65.7904 5.57864 65.3962 6.00296L37.5034 36.0195C36.685 36.9001 35.3536 36.9001 34.5352 36.0195C34.1409 35.5952 33.9236 35.0276 33.9236 34.4213C33.9236 34.0412 34.0091 33.6764 34.17 33.3525C34.1725 33.3478 34.1754 33.3433 34.1778 33.3385C34.2725 33.1512 34.3918 32.9774 34.5352 32.8229L49.9848 16.1972C50.3742 15.7781 50.3747 15.0984 49.986 14.6788C49.5974 14.2592 48.9666 14.2585 48.5773 14.6775L33.4294 30.9785C33.7772 27.8727 34.8945 25.0902 35.607 23.5704C35.8721 23.0071 35.8446 22.3197 35.5351 21.7765C35.2606 21.2947 34.808 21.0069 34.3246 21.0069H31.9853C31.4351 21.0069 30.9892 21.4877 30.9892 22.0806C30.9892 22.6736 31.4351 23.1543 31.9853 23.1543H33.5775C32.7272 25.0763 31.5709 28.2651 31.3626 31.754H5.21096C5.00204 28.2598 3.84604 25.0729 2.99644 23.1543H12.8978C13.0601 23.9605 13.3447 25.2245 13.7646 26.5757C14.5559 29.1255 17.652 30.7082 18.0024 30.8803C18.2646 31.009 18.5662 31.009 18.8284 30.8803C19.1786 30.7082 22.2729 29.1258 23.0676 26.5756C23.4866 25.2245 23.7703 23.9605 23.9322 23.1543H25.4887C26.0389 23.1543 26.4848 22.6736 26.4848 22.0806C26.4848 21.4877 26.0389 21.0069 25.4887 21.0069H23.1152C22.6307 21.0069 22.2162 21.3831 22.1335 21.8979C22.1306 21.917 21.8209 23.8225 21.1788 25.8933C20.8045 27.0942 19.3092 28.1778 18.4157 28.701C17.5393 28.1851 16.0247 27.0898 15.6536 25.8942C15.0095 23.8218 14.6987 21.9161 14.6955 21.8975C14.6129 21.3829 14.1987 21.0071 13.714 21.0071H2.36505C1.82171 21.0071 1.32393 21.3104 1.03373 21.8183C0.733044 22.3443 0.70688 23.0146 0.96613 23.5697C1.58995 24.8984 2.96549 28.1835 3.21305 31.7541H2.09544C1.14476 31.7541 0.371262 32.5876 0.371262 33.612V35.8705C0.371262 36.8949 1.14476 37.7284 2.09544 37.7284H2.79177C2.62084 39.0693 2.39719 40.7231 2.15228 42.4535C2.06927 43.0398 2.44287 43.5873 2.98674 43.6768C3.03761 43.6853 3.08821 43.6893 3.13828 43.6893C3.62198 43.6893 4.04645 43.3086 4.12163 42.7774C4.38592 40.91 4.62592 39.1293 4.80242 37.7284H31.7703C32.2626 41.6305 33.1668 47.8079 34.4633 56.1226C34.8659 58.6995 34.2299 61.2825 32.7182 63.2093C31.3809 64.9138 29.5591 65.8525 27.5884 65.8525H8.98523C7.01455 65.8525 5.19276 64.9138 3.85534 63.2093C2.34366 61.2825 1.70762 58.6995 2.11058 56.1223C2.48444 53.724 2.83109 51.4684 3.14067 49.4183C3.22912 48.833 2.86057 48.2813 2.31763 48.1861C1.77403 48.0899 1.26283 48.488 1.17451 49.0732C0.865458 51.1198 0.519348 53.3717 0.146145 55.7661C-0.354161 58.9674 0.443379 62.1857 2.33437 64.5959C4.03171 66.7593 6.45594 68 8.98549 68H27.5887C30.1182 68 32.5423 66.7593 34.2396 64.596C36.1305 62.1858 36.9282 58.9674 36.4282 55.7664C35.2111 47.9598 34.3412 42.0483 33.8351 38.1471C34.4997 38.5992 35.2593 38.8264 36.0195 38.8264C37.0667 38.8264 38.1138 38.3973 38.9111 37.5395L66.8038 7.52257C67.5751 6.6924 68 5.58523 68 4.40475C68 3.22428 67.5753 2.11697 66.8038 1.2868ZM2.36345 35.5806V33.9011H31.9604C31.9419 34.0724 31.9314 34.2459 31.9314 34.4211C31.9314 34.8187 31.9807 35.2075 32.074 35.5806H2.36345Z" fill="#505050"/>
<path d="M8.98536 59.8663C8.67019 59.8663 8.37309 59.6913 8.10215 59.3463C7.64727 58.767 7.46133 57.9543 7.59229 57.1164C8.6184 50.5352 9.4077 45.2291 9.93842 41.3455C10.0186 40.7588 9.64238 40.2133 9.09812 40.1268C8.55518 40.0403 8.0477 40.4458 7.96762 41.0326C7.43889 44.9018 6.65157 50.1934 5.62772 56.76C5.39915 58.2224 5.74685 59.6707 6.58158 60.7336C7.22984 61.5591 8.08356 62.0136 8.98536 62.0136C9.5356 62.0136 9.98145 61.5329 9.98145 60.9399C9.98145 60.347 9.5356 59.8663 8.98536 59.8663Z" fill="#505050"/>
<path d="M36.0918 35.4628C36.6419 35.4628 37.0879 34.9821 37.0879 34.3891C37.0879 33.7961 36.6419 33.3154 36.0918 33.3154C35.5416 33.3154 35.0957 33.7961 35.0957 34.3891C35.0957 34.9821 35.5416 35.4628 36.0918 35.4628Z" fill="#505050"/>
</svg>
