<svg width="54" height="56" viewBox="0 0 54 56" fill="none" xmlns="http://www.w3.org/2000/svg">
<g clip-path="url(#clip0_3866:162)">
<path d="M52.9453 23.122H44.2969V20.8506C44.2969 20.258 43.8246 19.7776 43.2422 19.7776H20.4609C19.8785 19.7776 19.4062 20.258 19.4062 20.8506C19.4062 21.4433 19.8785 21.9237 20.4609 21.9237H42.1875V30.1504C42.1875 37.3773 38.3952 44.094 32.2715 47.7486H12.0253C5.90171 44.0941 2.10938 37.3773 2.10938 30.1505V21.9238H9.17578C9.75818 21.9238 10.2305 21.4434 10.2305 20.8508C10.2305 20.2581 9.75818 19.7777 9.17578 19.7777H1.05469C0.472289 19.7777 0 20.2581 0 20.8508V30.1505C0 34.2067 1.07156 38.1839 3.09888 41.6519C4.46607 43.9909 6.24006 46.0563 8.31748 47.7487H1.05469C0.472289 47.7487 0 48.2291 0 48.8218C0 52.727 3.12261 55.904 6.96094 55.904H39.8672C43.7055 55.904 46.8281 52.727 46.8281 48.8218C46.8281 48.2291 46.3558 47.7487 45.7734 47.7487H35.9794C37.8914 46.1911 39.5455 44.3168 40.8628 42.2046H43.8399C49.4422 42.2046 54 37.5673 54 31.8674V24.1951C54 23.6024 53.5278 23.122 52.9453 23.122ZM44.6033 49.8949C44.1204 52.1024 42.1802 53.7579 39.8672 53.7579H6.96094C4.6479 53.7579 2.7078 52.1024 2.22486 49.8949H11.7428H32.5541H44.6033ZM44.2969 30.1505V29.5604H47.6719V31.8674C47.6719 34.0172 45.9528 35.7662 43.8399 35.7662H43.6004C44.0607 33.9413 44.2969 32.0547 44.2969 30.1505ZM51.8906 31.8674C51.8906 36.384 48.2791 40.0584 43.8399 40.0584H42.0448C42.3816 39.3587 42.6824 38.6423 42.9452 37.9123H43.8399C47.1161 37.9123 49.7812 35.2006 49.7812 31.8674V28.4873C49.7812 27.8946 49.309 27.4142 48.7266 27.4142H44.2969V25.2681H51.8906V31.8674Z" fill="#505050"/>
<path d="M23.1554 6.90205L22.6066 6.20102C21.801 5.17217 21.7999 3.73395 22.6038 2.7036C22.966 2.23939 22.8896 1.56444 22.4333 1.19605C21.977 0.827458 21.3137 0.905255 20.9515 1.36946C19.5338 3.1868 19.5359 5.7234 20.9567 7.53816L21.5054 8.23919C22.5581 9.58374 22.5597 11.4632 21.5092 12.8098L20.9469 13.5307C20.5847 13.9949 20.661 14.6698 21.1173 15.0382C21.3113 15.1948 21.5425 15.2709 21.7723 15.2709C22.083 15.2709 22.3908 15.1318 22.5991 14.8648L23.1615 14.1439C24.8258 12.0105 24.8234 9.03251 23.1554 6.90205Z" fill="#505050"/>
<path d="M29.0016 9.31465L28.4528 8.61373C27.6472 7.58477 27.6461 6.14655 28.45 5.11619C28.8121 4.65199 28.7358 3.97703 28.2795 3.60865C27.8232 3.24006 27.1599 3.31785 26.7977 3.78206C25.38 5.59939 25.3821 8.136 26.8029 9.95087L27.3516 10.6519C28.4042 11.9966 28.4058 13.8761 27.3553 15.2226L26.793 15.9434C26.4309 16.4076 26.5072 17.0825 26.9635 17.4509C27.1574 17.6075 27.3887 17.6834 27.6184 17.6834C27.9292 17.6834 28.2371 17.5443 28.4453 17.2774L29.0075 16.5566C30.6719 14.4233 30.6694 11.4453 29.0016 9.31465Z" fill="#505050"/>
<path d="M17.3097 9.31489L16.7609 8.61397C15.9554 7.58512 15.9542 6.14679 16.758 5.11643C17.1202 4.65223 17.0438 3.97727 16.5875 3.60878C16.1312 3.2403 15.4679 3.3182 15.1057 3.78219C13.6881 5.59953 13.6902 8.13624 15.111 9.951L15.6597 10.652C16.7123 11.9967 16.7139 13.8763 15.6635 15.2226L15.1012 15.9434C14.739 16.4076 14.8152 17.0826 15.2715 17.451C15.4655 17.6076 15.6966 17.6837 15.9265 17.6837C16.2372 17.6837 16.545 17.5446 16.7532 17.2777L17.3157 16.5569C18.98 14.4235 18.9776 11.4456 17.3097 9.31489Z" fill="#505050"/>
<path d="M15.8497 20.0917C15.6535 19.8922 15.3814 19.7773 15.104 19.7773C14.8266 19.7773 14.5545 19.8922 14.3583 20.0917C14.1623 20.2924 14.0493 20.5682 14.0493 20.8504C14.0493 21.1326 14.1622 21.4095 14.3583 21.6101C14.5545 21.8097 14.8266 21.9235 15.104 21.9235C15.3814 21.9235 15.6535 21.8097 15.8497 21.6101C16.0468 21.4095 16.1587 21.1337 16.1587 20.8504C16.1587 20.5682 16.0468 20.2913 15.8497 20.0917Z" fill="#505050"/>
<path d="M38.1799 29.0776C37.5975 29.0776 37.1252 29.558 37.1252 30.1507C37.1252 34.1338 35.5372 38.0482 32.7685 40.8902C32.3584 41.3111 32.3615 41.9905 32.7751 42.4077C32.9808 42.6151 33.2492 42.7187 33.5176 42.7187C33.7891 42.7186 34.0606 42.6126 34.2668 42.4009C37.4239 39.1602 39.2346 34.6952 39.2346 30.1507C39.2346 29.558 38.7623 29.0776 38.1799 29.0776Z" fill="#505050"/>
<path d="M30.9956 43.8027C30.7094 43.2864 30.0661 43.1041 29.5588 43.3952L29.5348 43.4091C29.0273 43.7003 28.8482 44.3547 29.1343 44.8709C29.3281 45.2205 29.6856 45.417 30.0539 45.417C30.2294 45.417 30.4074 45.3722 30.5711 45.2783L30.5951 45.2645C31.1025 44.9733 31.2817 44.3188 30.9956 43.8027Z" fill="#505050"/>
</g>
<defs>
<clipPath id="clip0_3866:162">
<rect width="54" height="54.9407" fill="white" transform="translate(0 0.963379)"/>
</clipPath>
</defs>
</svg>
