<svg width="54" height="56" viewBox="0 0 54 56" fill="none" xmlns="http://www.w3.org/2000/svg">
<path d="M1.35541 24.2667H14.4218C14.9375 24.2667 15.3554 23.8488 15.3554 23.3331V22.4H17.222V23.3331C17.222 23.8488 17.6398 24.2667 18.1551 24.2667H19.2929L20.0499 27.2933C20.1542 27.7085 20.5272 27.9999 20.9553 27.9999H24.6885C25.1166 27.9999 25.49 27.7085 25.5939 27.2933L26.3509 24.2667H27.4887C28.004 24.2667 28.4218 23.8488 28.4218 23.3331V18.6668C28.7773 18.6685 29.1033 18.4685 29.2622 18.1507L30.8656 14.9331H34.9552V46.6667H28.7307C30.2859 45.6353 31.2211 43.8939 31.222 42.0281V35.4665C31.222 34.9512 30.8041 34.5334 30.2884 34.5334H15.3554C14.8397 34.5334 14.4218 34.9512 14.4218 35.4665H9.75504C9.23978 35.4665 8.82194 35.8843 8.82194 36.4V41.9999C8.82194 42.5156 9.23978 42.9334 9.75504 42.9334H14.5022C14.7542 44.4578 15.6271 45.8096 16.9131 46.6667H9.75547C9.23978 46.6667 8.82194 47.0845 8.82194 47.5998V55.0668C8.82194 55.582 9.23978 55.9999 9.75547 55.9999H52.6885C53.2042 55.9999 53.622 55.582 53.622 55.0668V0.93353C53.622 0.417846 53.2042 0 52.6885 0H9.75547C9.23978 0 8.82194 0.417846 8.82194 0.93353V14C8.82194 14.5156 9.23978 14.9335 9.75547 14.9335H14.7786L16.3867 18.1507C16.5448 18.4668 16.8682 18.6668 17.222 18.6668V20.5334H15.3554V19.5999C15.3554 19.0846 14.9375 18.6668 14.4218 18.6668H1.35541C0.839721 18.6668 0.421875 19.0846 0.421875 19.5999V23.3331C0.421875 23.8488 0.839721 24.2667 1.35541 24.2667V24.2667ZM10.6886 37.3331H14.4218V41.0668H10.6886V37.3331ZM16.2885 41.9999V36.4H29.3553V42.0281C29.3528 44.0733 27.6955 45.7306 25.6498 45.7332H19.994C17.9487 45.7306 16.291 44.0733 16.2889 42.0281V41.9999H16.2885ZM23.9597 26.1333H21.6842L21.2176 24.2667H24.4262L23.9597 26.1333ZM36.8219 14.9331H51.7554V46.6667H36.8219V14.9331ZM51.7554 54.1332H10.6886V48.5333H51.7554V54.1332ZM10.6886 1.86663H51.7554V13.0664H10.6886V1.86663ZM16.8653 14.9331H28.7786L27.845 16.8001H17.7988L16.8653 14.9331ZM26.5552 18.6668V22.4H19.0886V18.6668H26.5552ZM2.28851 20.5334H13.4887V22.4H2.28851V20.5334Z" fill="#505050"/>
</svg>
