<svg width="49" height="58" viewBox="0 0 49 58" fill="none" xmlns="http://www.w3.org/2000/svg">
<path d="M41.3137 18.3667H39.9859C39.2925 17.7469 38.398 17.4031 37.4705 17.4H35.549V13.5333C35.8038 13.5333 36.0482 13.4315 36.2283 13.2502C36.4085 13.0689 36.5098 12.823 36.5098 12.5667V8.7C36.5098 8.44362 36.4085 8.19775 36.2283 8.01646C36.0482 7.83518 35.8038 7.73333 35.549 7.73333H23.0587V5.8H24.0195C24.784 5.8 25.5171 5.49446 26.0576 4.95061C26.5982 4.40675 26.9019 3.66913 26.9019 2.9C26.9019 2.13087 26.5982 1.39325 26.0576 0.84939C25.5171 0.305535 24.784 0 24.0195 0H16.3332C15.5687 0 14.8356 0.305535 14.2951 0.84939C13.7545 1.39325 13.4508 2.13087 13.4508 2.9C13.4508 3.66913 13.7545 4.40675 14.2951 4.95061C14.8356 5.49446 15.5687 5.8 16.3332 5.8H17.294V7.73333H4.80374C4.54892 7.73333 4.30454 7.83518 4.12436 8.01646C3.94417 8.19775 3.84295 8.44362 3.84295 8.7V11.6H0.960584C0.770587 11.6 0.584869 11.6568 0.426906 11.763C0.268943 11.8692 0.145827 12.0202 0.0731241 12.1968C0.000421231 12.3734 -0.0186046 12.5677 0.0184507 12.7552C0.0555059 12.9427 0.146979 13.1149 0.281306 13.2501L4.80374 17.8002V52.2C4.54892 52.2 4.30454 52.3018 4.12436 52.4831C3.94417 52.6644 3.84295 52.9103 3.84295 53.1667V57.0333C3.84295 57.2897 3.94417 57.5356 4.12436 57.7169C4.30454 57.8982 4.54892 58 4.80374 58H35.549C35.8038 58 36.0482 57.8982 36.2283 57.7169C36.4085 57.5356 36.5098 57.2897 36.5098 57.0333V53.1667C36.5098 52.9103 36.4085 52.6644 36.2283 52.4831C36.0482 52.3018 35.8038 52.2 35.549 52.2V48.3333H37.4705C38.398 48.3302 39.2925 47.9864 39.9859 47.3667H41.3137C43.0594 47.3657 44.7364 46.6826 45.9911 45.4615C47.2459 44.2404 47.9802 42.5767 48.0392 40.8214C48.3406 40.5501 48.5819 40.2181 48.7475 39.8469C48.913 39.4756 48.999 39.0735 49 38.6667V27.0667C48.999 26.6598 48.913 26.2577 48.7475 25.8865C48.5819 25.5152 48.3406 25.1832 48.0392 24.912C47.9802 23.1566 47.2459 21.493 45.9911 20.2719C44.7364 19.0508 43.0594 18.3677 41.3137 18.3667ZM42.2543 40.7991C42.2089 41.0162 42.0906 41.211 41.9193 41.3508C41.7481 41.4905 41.5342 41.5668 41.3137 41.5667H39.9859C39.2925 40.9469 38.398 40.6031 37.4705 40.6H35.549V25.1333H37.4705C38.398 25.1302 39.2925 24.7864 39.9859 24.1667H41.3137C41.5342 24.1666 41.7481 24.2428 41.9193 24.3825C42.0906 24.5223 42.2089 24.7171 42.2543 24.9342C41.9593 25.2047 41.7234 25.534 41.5615 25.9011C41.3995 26.2681 41.3152 26.6651 41.3137 27.0667V38.6667C41.3152 39.0683 41.3995 39.4652 41.5615 39.8323C41.7234 40.1993 41.9593 40.5286 42.2543 40.7991V40.7991ZM19.2156 13.5333V16.4333H6.72531V13.5333H19.2156ZM33.6274 24.1667H6.72531V18.3667H33.6274V24.1667ZM6.72531 26.1H19.2156V39.6333H6.72531V26.1ZM21.1371 26.1H33.6274V39.6333H21.1371V26.1ZM37.4705 19.3333C37.9802 19.3333 38.4689 19.537 38.8293 19.8996C39.1897 20.2622 39.3921 20.7539 39.3921 21.2667C39.3921 21.7794 39.1897 22.2712 38.8293 22.6337C38.4689 22.9963 37.9802 23.2 37.4705 23.2H35.549V19.3333H37.4705ZM33.6274 16.4333H21.1371V13.5333H33.6274V16.4333ZM15.3724 2.9C15.3724 2.64362 15.4736 2.39775 15.6538 2.21646C15.834 2.03518 16.0784 1.93333 16.3332 1.93333H24.0195C24.2743 1.93333 24.5187 2.03518 24.6989 2.21646C24.8791 2.39775 24.9803 2.64362 24.9803 2.9C24.9803 3.15638 24.8791 3.40225 24.6989 3.58354C24.5187 3.76482 24.2743 3.86667 24.0195 3.86667H16.3332C16.0784 3.86667 15.834 3.76482 15.6538 3.58354C15.4736 3.40225 15.3724 3.15638 15.3724 2.9ZM19.2156 5.8H21.1371V7.73333H19.2156V5.8ZM5.76453 9.66667H34.5882V11.6H5.76453V9.66667ZM4.80374 13.5333V15.0665L3.27993 13.5333H4.80374ZM34.5882 56.0667H5.76453V54.1333H34.5882V56.0667ZM6.72531 52.2V41.5667H33.6274V52.2H6.72531ZM37.4705 46.4H35.549V42.5333H37.4705C37.9802 42.5333 38.4689 42.737 38.8293 43.0996C39.1897 43.4622 39.3921 43.9539 39.3921 44.4667C39.3921 44.9794 39.1897 45.4712 38.8293 45.8337C38.4689 46.1963 37.9802 46.4 37.4705 46.4ZM47.0784 38.6667C47.0782 38.8353 47.0337 39.0008 46.9493 39.1465C46.8649 39.2922 46.7437 39.4128 46.598 39.4961C46.4521 39.5808 46.3309 39.7027 46.2466 39.8495C46.1623 39.9962 46.1178 40.1627 46.1176 40.3322V40.6C46.1161 41.8814 45.6095 43.1099 44.7089 44.016C43.8083 44.9221 42.5873 45.4318 41.3137 45.4333H41.1773C41.3592 44.8019 41.3592 44.1314 41.1773 43.5H41.3137C42.0781 43.5 42.8113 43.1945 43.3518 42.6506C43.8924 42.1068 44.1961 41.3691 44.1961 40.6V40.3322C44.1959 40.1627 44.1514 39.9962 44.0671 39.8495C43.9828 39.7027 43.8616 39.5808 43.7157 39.4961C43.5699 39.4128 43.4487 39.2922 43.3644 39.1465C43.28 39.0008 43.2355 38.8353 43.2353 38.6667V27.0667C43.2355 26.8981 43.28 26.7325 43.3644 26.5868C43.4487 26.4412 43.5699 26.3205 43.7157 26.2373C43.8616 26.1525 43.9828 26.0306 44.0671 25.8839C44.1514 25.7371 44.1959 25.5706 44.1961 25.4011V25.1333C44.1961 24.3642 43.8924 23.6266 43.3518 23.0827C42.8113 22.5389 42.0781 22.2333 41.3137 22.2333H41.1773C41.3592 21.6019 41.3592 20.9314 41.1773 20.3H41.3137C42.5873 20.3015 43.8083 20.8113 44.7089 21.7173C45.6095 22.6234 46.1161 23.8519 46.1176 25.1333V25.4011C46.1178 25.5706 46.1623 25.7371 46.2466 25.8839C46.3309 26.0306 46.4521 26.1525 46.598 26.2373C46.7437 26.3205 46.8649 26.4412 46.9493 26.5868C47.0337 26.7325 47.0782 26.8981 47.0784 27.0667V38.6667Z" fill="#505050"/>
</svg>
