<svg width="55" height="55" viewBox="0 0 55 55" fill="none" xmlns="http://www.w3.org/2000/svg">
<g clip-path="url(#clip0_3866:402)">
<path d="M19.4792 16.0417C19.0576 16.0417 18.6542 15.8102 18.4526 15.4092L11.5776 1.65918C11.2957 1.09314 11.5249 0.403347 12.0909 0.121472C12.6592 -0.162694 13.3444 0.0664724 13.6286 0.634806L20.5036 14.3848C20.7878 14.9508 20.5563 15.6383 19.9903 15.9225C19.8276 16.0027 19.6534 16.0417 19.4792 16.0417V16.0417Z" fill="#505050"/>
<path d="M35.5209 16.0415C35.349 16.0415 35.1749 16.0025 35.0099 15.92C34.4438 15.6359 34.2146 14.9484 34.4965 14.3823L41.3715 0.632335C41.6557 0.0640018 42.3432 -0.162873 42.9092 0.119002C43.4753 0.400877 43.7044 1.09067 43.4226 1.65671L36.5476 15.4067C36.3436 15.81 35.9403 16.0415 35.5209 16.0415V16.0415Z" fill="#505050"/>
<path d="M44.6873 2.29167H10.3123C9.67984 2.29167 9.1665 1.77833 9.1665 1.14583C9.1665 0.513333 9.67984 0 10.3123 0H44.6873C45.3198 0 45.8332 0.513333 45.8332 1.14583C45.8332 1.77833 45.3198 2.29167 44.6873 2.29167Z" fill="#505050"/>
<path d="M40.1043 22.9167H14.896C13.0008 22.9167 11.4585 21.3744 11.4585 19.4792V17.1875C11.4585 15.2923 13.0008 13.75 14.896 13.75H40.1043C41.9995 13.75 43.5418 15.2923 43.5418 17.1875V19.4792C43.5418 21.3744 41.9995 22.9167 40.1043 22.9167ZM14.896 16.0417C14.2635 16.0417 13.7502 16.555 13.7502 17.1875V19.4792C13.7502 20.1117 14.2635 20.625 14.896 20.625H40.1043C40.7368 20.625 41.2502 20.1117 41.2502 19.4792V17.1875C41.2502 16.555 40.7368 16.0417 40.1043 16.0417H14.896Z" fill="#505050"/>
<path d="M40.1042 55.0001H14.8958C10.4729 55.0001 6.875 51.4022 6.875 46.9793C6.875 45.8884 7.09042 44.8297 7.51437 43.8351L16.1173 21.3607C16.3442 20.7695 17.011 20.4784 17.5977 20.7007C18.189 20.9276 18.4846 21.5899 18.2577 22.1811L9.63875 44.6968C9.32021 45.4438 9.16667 46.2001 9.16667 46.9793C9.16667 50.1372 11.7379 52.7084 14.8958 52.7084H40.1042C43.2621 52.7084 45.8333 50.1372 45.8333 46.9793C45.8333 46.2001 45.6798 45.4438 45.3773 44.7357L36.7423 22.1811C36.5154 21.5899 36.811 20.9276 37.4023 20.7007C37.9912 20.4761 38.6535 20.7672 38.8827 21.3607L47.5017 43.8763C47.9096 44.832 48.125 45.8884 48.125 46.9793C48.125 51.4022 44.5271 55.0001 40.1042 55.0001V55.0001Z" fill="#505050"/>
<path d="M34.6546 37.8124C32.4019 37.8124 31.224 36.6826 30.2775 35.7751C29.4319 34.9616 28.82 34.3749 27.4885 34.3749C26.1594 34.3749 25.5498 34.9616 24.7042 35.7751C23.7577 36.6826 22.5821 37.8124 20.3317 37.8124C18.0812 37.8124 16.9056 36.6826 15.9615 35.7728C15.1158 34.9616 14.504 34.3749 13.1771 34.3749C12.5446 34.3749 12.0312 33.8616 12.0312 33.2291C12.0312 32.5966 12.5446 32.0833 13.1771 32.0833C15.4275 32.0833 16.6031 33.213 17.5473 34.1228C18.3929 34.9341 19.0048 35.5208 20.3317 35.5208C21.6585 35.5208 22.2704 34.9341 23.116 34.1228C24.0602 33.2153 25.2381 32.0833 27.4885 32.0833C29.7412 32.0833 30.9192 33.213 31.8656 34.1205C32.7135 34.9318 33.3254 35.5208 34.6546 35.5208C35.986 35.5208 36.5979 34.9341 37.4458 34.1205C38.3923 33.213 39.5702 32.0833 41.8229 32.0833C42.4554 32.0833 42.9687 32.5966 42.9687 33.2291C42.9687 33.8616 42.4554 34.3749 41.8229 34.3749C40.4915 34.3749 39.8796 34.9616 39.0317 35.7751C38.0852 36.6826 36.9073 37.8124 34.6546 37.8124Z" fill="#505050"/>
</g>
<defs>
<clipPath id="clip0_3866:402">
<rect width="55" height="55" fill="white"/>
</clipPath>
</defs>
</svg>
