<svg width="42" height="58" viewBox="0 0 42 58" fill="none" xmlns="http://www.w3.org/2000/svg">
<path d="M38.6233 48.2876H37.3101V15.9678C37.3101 15.9132 37.3062 15.8594 37.2989 15.8068C38.4059 14.4404 39.0721 12.6878 39.0721 10.7791V2.24557C39.5846 2.14611 39.9722 1.68574 39.9722 1.13281C39.9722 0.507273 39.476 0 38.8642 0H3.1358C2.52396 0 2.02779 0.507273 2.02779 1.13281C2.02779 1.68574 2.41537 2.14611 2.92794 2.24557V10.7791C2.92794 12.6814 3.58954 14.4286 4.68991 15.793V15.7944V48.2876H3.3768C1.51477 48.2876 0 49.8364 0 51.7401V56.8672C0 57.4927 0.496171 58 1.10802 58H40.892C41.5038 58 42 57.4927 42 56.8672V51.74C42 49.8364 40.4852 48.2876 38.6233 48.2876V48.2876ZM36.8561 2.26562V10.7791C36.8561 13.8821 34.387 16.4064 31.3521 16.4064H10.6481C7.61309 16.4064 5.14398 13.8821 5.14398 10.7791V2.26562H36.8561ZM19.3357 23.2258H22.6645V25.6871H19.3357V23.2258ZM15.4826 20.9602V18.672H26.5175V20.9602H15.4826ZM6.90606 17.6813C8.01519 18.3124 9.29129 18.672 10.6481 18.672H13.2665V22.093C13.2665 22.7186 13.7627 23.2258 14.3745 23.2258H17.1196V26.8199C17.1196 27.4454 17.6157 27.9527 18.2276 27.9527H23.7724C24.3843 27.9527 24.8804 27.4454 24.8804 26.8199V23.2258H27.6255C28.2373 23.2258 28.7335 22.7186 28.7335 22.093V18.672H31.3519C32.7087 18.672 33.9849 18.3123 35.0939 17.6813V48.2876H27.5133C27.8998 47.6124 28.1215 46.8273 28.1215 45.9901V45.4015H31.0511C31.663 45.4015 32.1591 44.8943 32.1591 44.2687V38.7388C32.1591 38.1133 31.663 37.606 31.0511 37.606H28.1215V36.7046C28.1215 36.0791 27.6253 35.5718 27.0135 35.5718H15.019C14.4071 35.5718 13.911 36.0791 13.911 36.7046V45.9901C13.911 46.8273 14.1327 47.6124 14.5191 48.2876H6.90606V17.6813ZM16.127 45.99V37.8373H25.9057V45.99C25.9057 47.257 24.8975 48.2875 23.6584 48.2875H18.3744C17.1351 48.2876 16.127 47.257 16.127 45.99V45.99ZM28.1216 39.8716H29.9432V43.1358H28.1216V39.8716ZM39.784 55.7344H2.21615V51.74C2.21615 51.0857 2.73681 50.5531 3.37691 50.5531H38.6234C39.2634 50.5531 39.7842 51.0855 39.7842 51.74V55.7344H39.784Z" fill="#505050"/>
</svg>
