<svg width="51" height="61" viewBox="0 0 51 61" fill="none" xmlns="http://www.w3.org/2000/svg">
<path d="M50.0319 16.1931L46.1905 10.9694C45.6762 10.2699 44.9024 9.86878 44.0676 9.86878H40.8954C40.596 9.28153 40.0113 8.88181 39.3404 8.88181H35.7661L25.3343 5.18286C25.0889 5.09576 24.8379 5.03202 24.5836 4.99068L25.099 2.24926C25.2032 1.69466 25.0697 1.12576 24.7326 0.688275C24.3958 0.25091 23.8975 0 23.3657 0H20.0629C19.5312 0 19.0331 0.250791 18.696 0.688156C18.3588 1.12552 18.2253 1.69442 18.3295 2.24914L18.8449 4.99068C18.5907 5.03202 18.3397 5.09576 18.0943 5.18286L7.66252 8.88193H4.08808C3.24408 8.88193 2.43805 9.31072 1.93183 10.0289L0.26198 12.3974C-0.0362633 12.8204 -0.0834132 13.377 0.138786 13.8499C0.361096 14.3228 0.807958 14.6166 1.30499 14.6166H2.69127C2.71905 14.6166 2.74537 14.6308 2.76194 14.6547L8.50003 22.9471L8.9806 27.0367C9.0338 27.4887 9.39554 27.8196 9.81306 27.8196C9.84789 27.8196 9.88294 27.8172 9.91833 27.8125C10.3785 27.7513 10.7051 27.3048 10.6476 26.8151L10.1479 22.5623L10.4705 10.6692H14.479L16.967 31.8427C16.9969 32.097 17.059 32.3393 17.1464 32.5673H11.401C11.3568 32.5673 11.3194 32.5322 11.314 32.4856L11.0677 30.3894C11.0102 29.8997 10.5912 29.5522 10.13 29.6136C9.66982 29.6748 9.34324 30.1214 9.40069 30.611L9.64697 32.7073C9.7574 33.6463 10.5116 34.3544 11.401 34.3544H11.5975V39.4755H11.381C10.4989 39.4755 9.76378 40.149 9.63286 41.0769L7.28779 57.7073C7.1712 58.5337 7.39833 59.3706 7.91082 60.0037C8.42331 60.637 9.16785 61 9.95317 61H12.0034C12.4673 61 12.8433 60.5999 12.8433 60.1064C12.8433 59.613 12.4673 59.2129 12.0034 59.2129H9.95317C9.65291 59.2129 9.37975 59.0796 9.18376 58.8376C8.98788 58.5956 8.90455 58.2884 8.94901 57.9724L9.07871 57.0525H34.3497L34.4794 57.9724C34.5238 58.2882 34.4405 58.5955 34.2445 58.8376C34.0485 59.0796 33.7754 59.2129 33.4751 59.2129H15.3633C14.8993 59.2129 14.5234 59.613 14.5234 60.1064C14.5234 60.5999 14.8993 61 15.3633 61H33.4752C34.2606 61 35.005 60.6369 35.5176 60.0039C36.0301 59.3708 36.2572 58.5337 36.1408 57.7074L33.7957 41.0768C33.6648 40.1488 32.9297 39.4755 32.0476 39.4755H31.8311V34.3542H32.0276C32.917 34.3542 33.6712 33.6461 33.7816 32.707L35.3276 19.551H38.0508C38.3998 19.551 38.7407 19.4802 39.064 19.3406L40.6296 18.6649C41.8471 18.1399 43.2412 18.5584 44.0203 19.6836C44.5269 20.4152 44.7124 21.344 44.5291 22.2318L41.7976 35.4545C41.7886 35.4976 41.7534 35.5279 41.7118 35.5279H39.3404C38.3657 35.5279 37.5728 36.3714 37.5728 37.4083V39.3819C37.5728 40.4188 38.3657 41.2625 39.3404 41.2625H44.0359C45.2883 41.2625 46.3662 40.3576 46.6573 39.0619L50.8737 20.3018C51.1979 18.8589 50.8911 17.3614 50.0319 16.1931ZM39.4282 10.7624V13.0498C39.4282 13.5762 39.0744 14.0238 38.5868 14.114L35.9082 14.6096L36.3712 10.669H39.3404C39.3888 10.669 39.4282 10.7109 39.4282 10.7624ZM19.995 1.8213C20.0212 1.78711 20.0526 1.78711 20.0629 1.78711H23.3657C23.376 1.78711 23.4073 1.78711 23.4337 1.8213C23.46 1.85538 23.454 1.88802 23.4519 1.89874L22.8811 4.93433H20.5475L19.9768 1.89874C19.9747 1.88814 19.9687 1.8555 19.995 1.8213ZM2.69127 12.8294H2.05727L3.27589 11.101C3.4665 10.8305 3.77012 10.669 4.08808 10.669H8.78965L8.53698 19.986L4.11496 13.5953C3.78323 13.1157 3.25103 12.8294 2.69127 12.8294ZM18.6258 6.87823C18.9188 6.77422 19.2243 6.72156 19.5335 6.72156H23.8952C24.2045 6.72156 24.5098 6.77422 24.803 6.87835L30.4536 8.88193H12.975L18.6258 6.87823ZM18.6339 31.6209L16.1719 10.669H27.2566L24.7948 31.6208C24.7314 32.1602 24.2981 32.5671 23.7872 32.5671H19.6414C19.1304 32.5671 18.6972 32.1603 18.6339 31.6209ZM11.2941 41.3418C11.3006 41.2958 11.3371 41.2623 11.3809 41.2623H17.1729C17.0928 41.4696 17.0325 41.6881 17.0003 41.9171L15.1181 55.2654H9.33081L11.2941 41.3418ZM24.8314 42.1823L26.6762 55.2653H16.8169L18.6617 42.1822C18.7356 41.6579 19.1674 41.2623 19.6659 41.2623H23.8274C24.3258 41.2623 24.7575 41.6579 24.8314 42.1823ZM32.1345 41.3418L34.0978 55.2654H28.3748L26.4926 41.9174C26.4604 41.6884 26.4001 41.4698 26.3198 41.2625H32.0476C32.0915 41.2623 32.128 41.2958 32.1345 41.3418ZM30.1513 39.4752H13.2773V34.3542H30.1513V39.4752ZM32.1147 32.4852C32.1092 32.5319 32.0718 32.5671 32.0277 32.5671H26.2823C26.3698 32.3392 26.4319 32.0967 26.4618 31.8425L28.9496 10.669H34.6782L32.1147 32.4852ZM49.2399 19.8861L45.0235 38.6462C44.9139 39.1344 44.5078 39.4752 44.036 39.4752H39.3404C39.292 39.4752 39.2527 39.4333 39.2527 39.3818V37.4081C39.2527 37.3567 39.2921 37.3148 39.3404 37.3148H41.7118C42.5355 37.3148 43.2616 36.6938 43.4383 35.838L46.1698 22.6154C46.4569 21.2248 46.1665 19.7698 45.3727 18.6237C44.1377 16.8403 41.9273 16.1762 39.9981 17.0091L38.4325 17.6848C38.3106 17.7373 38.1823 17.764 38.0508 17.764H35.5376L35.6904 16.4639L38.8746 15.8748C40.1688 15.6353 41.108 14.4473 41.108 13.0499V11.656H44.0676C44.3821 11.656 44.6735 11.8072 44.8674 12.0706L48.7088 17.2943C49.2509 18.0312 49.4443 18.976 49.2399 19.8861Z" fill="#505050"/>
</svg>
