<svg width="100%" height="211" viewBox="0 0 1349 211" fill="none" xmlns="http://www.w3.org/2000/svg">
<path fill-rule="evenodd" clip-rule="evenodd" d="M-337 79.125L-259.458 101.104C-181.917 123.083 -26.8333 167.042 128.25 184.625C283.333 202.208 438.417 193.417 593.5 171.438C748.583 149.458 903.667 114.292 1058.75 83.5208C1213.83 52.75 1368.92 26.375 1446.46 13.1875L1524 0V211H1446.46C1368.92 211 1213.83 211 1058.75 211C903.667 211 748.583 211 593.5 211C438.417 211 283.333 211 128.25 211C-26.8333 211 -181.917 211 -259.458 211H-337V79.125Z" fill="#FFF7E1"/>
</svg>
