<svg width="768" height="120" viewBox="0 0 768 120" fill="none" xmlns="http://www.w3.org/2000/svg">
<path fill-rule="evenodd" clip-rule="evenodd" d="M-16 78L16.6667 66.3333C49.3333 54.6667 114.667 31.3333 180 22C245.333 12.6667 310.667 17.3333 376 29C441.333 40.6667 506.667 59.3333 572 75.6667C637.333 92 702.667 106 735.333 113L768 120V8H735.333C702.667 8 637.333 8 572 8C506.667 8 441.333 8 376 8C310.667 8 245.333 8 180 8C114.667 8 49.3333 8 16.6667 8H-16V78Z" fill="#F9B300"/>
<path fill-rule="evenodd" clip-rule="evenodd" d="M-16 66.25L16.6667 55.2083C49.3333 44.1667 114.667 22.0833 180 13.25C245.333 4.41666 310.667 8.83334 376 19.875C441.333 30.9167 506.667 48.5833 572 64.0417C637.333 79.5 702.667 92.75 735.333 99.375L768 106V0H735.333C702.667 0 637.333 0 572 0C506.667 0 441.333 0 376 0C310.667 0 245.333 0 180 0C114.667 0 49.3333 0 16.6667 0H-16V66.25Z" fill="#FFF7E1"/>
</svg>
