<svg width="1349" height="219" viewBox="0 0 1349 219" fill="none" xmlns="http://www.w3.org/2000/svg">
<path fill-rule="evenodd" clip-rule="evenodd" d="M-337 142.5L-259.458 121.25C-181.917 100 -26.8333 57.5 128.25 40.5C283.333 23.5 438.417 32 593.5 53.25C748.583 74.5 903.667 108.5 1058.75 138.25C1213.83 168 1368.92 193.5 1446.46 206.25L1524 219V15H1446.46C1368.92 15 1213.83 15 1058.75 15C903.667 15 748.583 15 593.5 15C438.417 15 283.333 15 128.25 15C-26.8333 15 -181.917 15 -259.458 15H-337V142.5Z" fill="#F9B300"/>
<path fill-rule="evenodd" clip-rule="evenodd" d="M-326 127.5L-248.458 106.25C-170.917 85 -15.8333 42.5 139.25 25.5C294.333 8.50001 449.417 17 604.5 38.25C759.583 59.5 914.667 93.5 1069.75 123.25C1224.83 153 1379.92 178.5 1457.46 191.25L1535 204V5.72205e-06H1457.46C1379.92 5.72205e-06 1224.83 5.72205e-06 1069.75 5.72205e-06C914.667 5.72205e-06 759.583 5.72205e-06 604.5 5.72205e-06C449.417 5.72205e-06 294.333 5.72205e-06 139.25 5.72205e-06C-15.8333 5.72205e-06 -170.917 5.72205e-06 -248.458 5.72205e-06H-326V127.5Z" fill="#F5F5F5"/>
</svg>
