<svg width="30" height="30" viewBox="0 0 30 30" fill="none" xmlns="http://www.w3.org/2000/svg">
<circle cx="15" cy="15" r="15" fill="#F9B300"/>
<path d="M23.6987 10.7783L22.5043 9.23687C22.3444 9.03047 22.1038 8.9121 21.8443 8.9121H20.8579C20.7649 8.73881 20.5831 8.62086 20.3745 8.62086H19.2631L16.0196 7.52937C15.9433 7.50367 15.8653 7.48486 15.7862 7.47266L15.9465 6.66371C15.9789 6.50006 15.9374 6.33219 15.8326 6.2031C15.7278 6.07404 15.5729 6 15.4076 6H14.3806C14.2153 6 14.0604 6.074 13.9556 6.20306C13.8508 6.33212 13.8093 6.49999 13.8417 6.66368L14.0019 7.47266C13.9229 7.48486 13.8448 7.50367 13.7685 7.52937L10.525 8.6209H9.41366C9.15124 8.6209 8.90063 8.74743 8.74323 8.95935L8.22403 9.65825C8.1313 9.78306 8.11664 9.94731 8.18573 10.0868C8.25485 10.2264 8.39379 10.3131 8.54833 10.3131H8.97936C8.988 10.3131 8.99618 10.3173 9.00133 10.3243L10.7854 12.7713L10.9349 13.978C10.9514 14.1114 11.0639 14.2091 11.1937 14.2091C11.2045 14.2091 11.2154 14.2084 11.2264 14.207C11.3695 14.1889 11.4711 14.0571 11.4532 13.9127L11.2978 12.6577L11.3981 9.14828H12.6445L13.418 15.3962C13.4273 15.4712 13.4467 15.5427 13.4738 15.61H11.6874C11.6737 15.61 11.6621 15.5997 11.6604 15.5859L11.5838 14.9674C11.5659 14.8228 11.4356 14.7203 11.2922 14.7384C11.1492 14.7565 11.0476 14.8883 11.0655 15.0328L11.1421 15.6513C11.1764 15.9284 11.4109 16.1374 11.6874 16.1374H11.7485V17.6485H11.6812C11.4069 17.6485 11.1784 17.8472 11.1377 18.1211L10.4085 23.0284C10.3723 23.2722 10.4429 23.5192 10.6022 23.706C10.7616 23.8929 10.9931 24 11.2373 24H11.8747C12.019 24 12.1359 23.8819 12.1359 23.7363C12.1359 23.5907 12.019 23.4727 11.8747 23.4727H11.2373C11.1439 23.4727 11.059 23.4333 10.998 23.3619C10.9371 23.2905 10.9112 23.1998 10.925 23.1066L10.9654 22.8352H18.8227L18.8631 23.1066C18.8769 23.1998 18.851 23.2905 18.79 23.3619C18.7291 23.4333 18.6442 23.4727 18.5508 23.4727H12.9194C12.7751 23.4727 12.6582 23.5907 12.6582 23.7363C12.6582 23.8819 12.7751 24 12.9194 24H18.5508C18.795 24 19.0265 23.8928 19.1859 23.7061C19.3452 23.5192 19.4158 23.2722 19.3796 23.0284L18.6505 18.121C18.6098 17.8472 18.3812 17.6485 18.107 17.6485H18.0397V16.1373H18.1007C18.3773 16.1373 18.6118 15.9284 18.6461 15.6512L19.1268 11.7691H19.9735C20.082 11.7691 20.188 11.7483 20.2885 11.7071L20.7753 11.5077C21.1539 11.3527 21.5873 11.4763 21.8295 11.8083C21.9871 12.0242 22.0447 12.2982 21.9877 12.5602L21.1385 16.462C21.1357 16.4747 21.1247 16.4836 21.1118 16.4836H20.3745C20.0714 16.4836 19.8249 16.7325 19.8249 17.0385V17.6209C19.8249 17.9269 20.0714 18.1758 20.3745 18.1758H21.8344C22.2238 18.1758 22.559 17.9088 22.6495 17.5265L23.9605 11.9907C24.0613 11.5649 23.9658 11.123 23.6987 10.7783ZM20.4018 9.1758V9.85077C20.4018 10.0061 20.2918 10.1382 20.1402 10.1648L19.3073 10.311L19.4513 9.14824H20.3745C20.3895 9.14824 20.4018 9.16058 20.4018 9.1758ZM14.3595 6.53743C14.3677 6.52734 14.3774 6.52734 14.3806 6.52734H15.4076C15.4108 6.52734 15.4205 6.52734 15.4287 6.53743C15.4369 6.54749 15.435 6.55712 15.4343 6.56029L15.2569 7.45603H14.5313L14.3538 6.56029C14.3532 6.55716 14.3513 6.54752 14.3595 6.53743ZM8.97936 9.78573H8.78223L9.16113 9.27572C9.2204 9.19588 9.3148 9.14824 9.41366 9.14824H10.8755L10.7969 11.8975L9.42202 10.0117C9.31888 9.87021 9.1534 9.78573 8.97936 9.78573ZM13.9338 8.02964C14.0249 7.99895 14.1199 7.98341 14.216 7.98341H15.5722C15.6683 7.98341 15.7633 7.99895 15.8544 8.02968L17.6113 8.6209H12.1768L13.9338 8.02964ZM13.9363 15.3307L13.1708 9.14824H16.6173L15.8519 15.3307C15.8322 15.4899 15.6974 15.61 15.5386 15.61H14.2496C14.0907 15.61 13.956 15.4899 13.9363 15.3307ZM11.6542 18.1992C11.6562 18.1856 11.6676 18.1758 11.6812 18.1758H13.4821C13.4571 18.2369 13.4384 18.3014 13.4284 18.369L12.8432 22.3078H11.0438L11.6542 18.1992ZM15.8633 18.4472L16.4369 22.3078H13.3714L13.945 18.4472C13.9679 18.2925 14.1022 18.1758 14.2572 18.1758H15.5511C15.706 18.1758 15.8403 18.2925 15.8633 18.4472ZM18.134 18.1992L18.7444 22.3078H16.965L16.3798 18.3691C16.3698 18.3015 16.351 18.237 16.3261 18.1758H18.107C18.1206 18.1758 18.132 18.1856 18.134 18.1992ZM17.5174 17.6484H12.2708V16.1373H17.5174V17.6484ZM18.1278 15.5858C18.1261 15.5996 18.1145 15.61 18.1008 15.61H16.3144C16.3416 15.5427 16.3609 15.4712 16.3702 15.3961L17.1437 9.14824H18.9249L18.1278 15.5858ZM23.4525 11.868L22.1415 17.4038C22.1074 17.5478 21.9811 17.6484 21.8345 17.6484H20.3745C20.3594 17.6484 20.3472 17.6361 20.3472 17.6209V17.0385C20.3472 17.0233 20.3595 17.0109 20.3745 17.0109H21.1118C21.3679 17.0109 21.5937 16.8277 21.6486 16.5751L22.4979 12.6734C22.5872 12.2631 22.4969 11.8337 22.2501 11.4955C21.8661 10.9693 21.1788 10.7733 20.5789 11.0191L20.0922 11.2185C20.0543 11.234 20.0144 11.2418 19.9735 11.2418H19.1921L19.2396 10.8582L20.2296 10.6844C20.6321 10.6137 20.9241 10.2632 20.9241 9.8508V9.43948H21.8443C21.9421 9.43948 22.0327 9.48409 22.0929 9.56182L23.2873 11.1032C23.4559 11.3207 23.516 11.5995 23.4525 11.868Z" fill="black"/>
</svg>
