<svg width="1904" height="204" viewBox="0 0 1904 204" fill="none" xmlns="http://www.w3.org/2000/svg">
<path fill-rule="evenodd" clip-rule="evenodd" d="M1904 76.5L1824.67 97.75C1745.33 119 1586.67 161.5 1428 178.5C1269.33 195.5 1110.67 187 952 165.75C793.333 144.5 634.667 110.5 476 80.75C317.333 51 158.667 25.5 79.3333 12.75L0 0V204H79.3333C158.667 204 317.333 204 476 204C634.667 204 793.333 204 952 204C1110.67 204 1269.33 204 1428 204C1586.67 204 1745.33 204 1824.67 204H1904V76.5Z" fill="#FFF7E1"/>
</svg>
