<svg width="21" height="19" viewBox="0 0 21 19" fill="none" xmlns="http://www.w3.org/2000/svg">
<path d="M1 1H4.45455L6.76909 11.8395C6.84807 12.2122 7.06438 12.547 7.38015 12.7853C7.69593 13.0236 8.09106 13.1501 8.49636 13.1429H16.8909C17.2962 13.1501 17.6913 13.0236 18.0071 12.7853C18.3229 12.547 18.5392 12.2122 18.6182 11.8395L20 5.04762H5.31818M8.77273 17.1905C8.77273 17.6376 8.38606 18 7.90909 18C7.43212 18 7.04545 17.6376 7.04545 17.1905C7.04545 16.7434 7.43212 16.381 7.90909 16.381C8.38606 16.381 8.77273 16.7434 8.77273 17.1905ZM18.2727 17.1905C18.2727 17.6376 17.8861 18 17.4091 18C16.9321 18 16.5455 17.6376 16.5455 17.1905C16.5455 16.7434 16.9321 16.381 17.4091 16.381C17.8861 16.381 18.2727 16.7434 18.2727 17.1905Z" stroke="#222222" stroke-width="1.5" stroke-linecap="round" stroke-linejoin="round"/>
</svg>
