<svg width="28" height="28" viewBox="0 0 28 28" fill="none" xmlns="http://www.w3.org/2000/svg">
<path d="M18.725 14C18.725 11.375 16.625 9.275 14 9.275C11.375 9.275 9.275 11.375 9.275 14C9.275 16.625 11.375 18.725 14 18.725C16.625 18.725 18.725 16.625 18.725 14ZM21.175 14C21.175 18.025 18.025 21.175 14 21.175C9.975 21.175 6.825 18.025 6.825 14C6.825 9.975 9.975 6.825 14 6.825C18.025 6.825 21.175 9.975 21.175 14ZM23.1 6.475C23.1 7.525 22.4 8.225 21.35 8.225C20.3 8.225 19.6 7.525 19.6 6.475C19.6 5.425 20.3 4.725 21.35 4.725C22.4 4.725 23.1 5.6 23.1 6.475ZM14 2.45C11.9 2.45 7.525 2.275 5.775 2.975C4.55 3.5 3.5 4.55 3.15 5.775C2.45 7.525 2.625 11.9 2.625 14C2.625 16.1 2.45 20.475 3.15 22.225C3.5 23.45 4.55 24.5 5.775 24.85C7.525 25.55 12.075 25.375 14 25.375C15.925 25.375 20.475 25.55 22.225 24.85C23.45 24.325 24.325 23.45 24.85 22.225C25.55 20.3 25.375 15.925 25.375 14C25.375 12.075 25.55 7.525 24.85 5.775C24.5 4.55 23.45 3.5 22.225 3.15C20.475 2.275 16.1 2.45 14 2.45ZM28 14V19.775C28 21.875 27.3 23.975 25.725 25.725C24.15 27.3 22.05 28 19.775 28H8.225C6.125 28 4.025 27.3 2.275 25.725C0.875 24.15 0 22.05 0 19.775V14V8.225C0 5.95 0.875 3.85 2.275 2.275C4.025 0.875 6.125 0 8.225 0H19.775C21.875 0 23.975 0.7 25.725 2.275C27.125 3.85 28 5.95 28 8.225V14Z" fill="white"/>
</svg>
