<svg width="28" height="28" viewBox="0 0 28 28" fill="none" xmlns="http://www.w3.org/2000/svg">
<path d="M26.9992 24.38V20.466C27.0151 19.8261 26.7948 19.2028 26.3802 18.7145C25.9657 18.2261 25.3857 17.9069 24.7507 17.8175C23.4956 17.6523 22.2633 17.3459 21.0772 16.9042C20.6093 16.7287 20.1008 16.6907 19.612 16.7947C19.1231 16.8988 18.6743 17.1405 18.3189 17.4913L16.6587 19.1483C13.3858 17.291 10.676 14.5865 8.81503 11.3202L10.4753 9.66322C10.8267 9.30849 11.069 8.86064 11.1732 8.37273C11.2775 7.88483 11.2394 7.37732 11.0635 6.91034C10.621 5.72664 10.314 4.49676 10.1484 3.24418C10.0597 2.61721 9.74546 2.04386 9.26442 1.63098C8.78338 1.21811 8.16833 0.993895 7.5339 1.00013H3.61208C3.24911 1.00047 2.89018 1.07623 2.55815 1.2226C2.22612 1.36897 1.92827 1.58274 1.68355 1.85029C1.43884 2.11783 1.25262 2.43331 1.13676 2.77661C1.02091 3.11992 0.977943 3.48355 1.01061 3.84434C1.43971 7.8771 2.81462 11.7523 5.02394 15.1559C7.03104 18.3083 9.70898 20.9809 12.8676 22.984C16.2626 25.1813 20.1266 26.5532 24.1493 26.9894C24.5119 27.0221 24.8774 26.9789 25.2223 26.8625C25.5672 26.7461 25.8839 26.559 26.1522 26.3134C26.4205 26.0678 26.6344 25.7689 26.7802 25.436C26.9261 25.1031 27.0007 24.7434 26.9992 24.38Z" stroke="white" stroke-width="2" stroke-linecap="round" stroke-linejoin="round"/>
</svg>
